<?xml version="1.0" encoding="utf-8"?>
<!-- Generator: Adobe Illustrator 15.1.0, SVG Export Plug-In . SVG Version: 6.00 Build 0)  -->
<!DOCTYPE svg PUBLIC "-//W3C//DTD SVG 1.1//EN" "http://www.w3.org/Graphics/SVG/1.1/DTD/svg11.dtd">
<svg version="1.1" xmlns="http://www.w3.org/2000/svg" xmlns:xlink="http://www.w3.org/1999/xlink" x="0px" y="0px"
	 width="595.28px" height="841.89px" viewBox="0 0 595.28 841.89" enable-background="new 0 0 595.28 841.89" xml:space="preserve">
<g id="Layer_16">
	<rect x="48" y="126.625" fill="#FFFFFF" width="376" height="250"/>
</g>
<g id="Layer_6" display="none">
	<path display="inline" fill="#171617" d="M212.393,60.127l51.855-15.556l3.965-3.965l12.964,0.152l5.338,3.203v7.931l2.44,1.22
		l0.609,20.132c0,0-2.338,3.253-4.778-0.102c-2.44-3.355-4.066-5.897-4.066-5.897l-5.694-11.083c0,0-5.287-1.118-7.117-2.542
		l-48.702,14.032L212.393,60.127z"/>
</g>
<g id="Layer_7" display="none">
	<path display="inline" fill="#171617" d="M266.383,30.387c0,0-1.373,9.761,0.305,11.286c1.678,1.525,19.521,0.61,20.132-0.305
		s1.525-8.846,1.525-8.846s0.915-3.965-6.405-3.813c0,0-5.033-4.88-13.117,0.152"/>
</g>
<g id="Layer_8" display="none">
	<path display="inline" fill="#171617" d="M267.908,32.675c0,0-23.285,2.034-30.91,5.491c-7.626,3.457-13.727,4.677-14.539,4.779
		c-0.814,0.102-0.407,2.745,4.27,3.965c4.678,1.22,35.689-1.322,41.281-5.694S267.908,32.675,267.908,32.675z"/>
	<path display="inline" fill="#171617" d="M281.329,28.709c0,0,1.372-5.948-4.575-10.829c-5.948-4.88-4.424-3.508-4.424-3.508
		s-5.947-0.61-7.777,1.22s-2.44,5.795-2.136,7.931c0.306,2.135,2.593,5.948,4.423,7.473
		C268.67,32.522,281.329,28.709,281.329,28.709z"/>
	<path display="inline" fill="#171617" d="M287.227,34.506c0,0,45.043,8.541,51.448,8.337c0,0,3.457,0.609-1.729,2.847
		c0,0-49.821-6.203-53.38-9.761C280.008,32.371,287.227,34.506,287.227,34.506z"/>
	<path display="inline" fill="#171617" d="M160.232,61.144l-65.258-16.19l-3.235-4.581l-12.802-2.049l-5.804,2.25l-1.346,7.815
		l-2.612,0.789l-4.018,19.736c0,0,1.753,3.603,4.727,0.71c2.975-2.893,5.009-5.122,5.009-5.122l7.493-9.956
		c0,0,5.398-0.205,7.444-1.297l72.639,18.265L160.232,61.144z"/>
	<path display="inline" fill="#171617" d="M95.277,30.613c0,0-0.304,9.853-2.216,11.071s-19.343-2.711-19.788-3.717
		s-0.002-8.976-0.002-8.976s-0.229-4.063,6.96-2.671c0,0,5.788-3.956,12.899,2.376"/>
	<path display="inline" fill="#171617" d="M93.387,32.609c0,0,22.601,5.955,29.529,10.656c6.928,4.701,12.733,6.939,13.518,7.177
		c0.784,0.238-0.064,2.775-4.881,3.184c-4.816,0.408-34.947-7.359-39.717-12.617C87.067,35.751,93.387,32.609,93.387,32.609z"/>
	<path display="inline" fill="#171617" d="M80.832,26.423c0,0-0.343-6.095,6.348-9.895c6.689-3.8,4.953-2.706,4.953-2.706
		s5.965,0.408,7.459,2.522c1.492,2.114,1.421,6.125,0.758,8.178c-0.662,2.052-3.564,5.422-5.627,6.614S80.832,26.423,80.832,26.423z
		"/>
	<path display="inline" fill="#171617" d="M74.037,31.135c0,0-45.84,0.773-52.117-0.515c0,0-3.51,0.014,1.221,3.099
		c0,0,50.151,2.342,54.262-0.561C81.514,30.255,74.037,31.135,74.037,31.135z"/>
</g>
<g id="Layer_9" display="none">
	<path display="inline" fill="#171617" d="M223.883,90.833l72.596,5.49l20.742,13.421l3.254,25.216l-1.627,3.253h-2.033
		c0,0-8.135-19.522-12.608-22.572s-10.778-5.897-10.778-7.727s-73.002-5.491-73.002-5.491L223.883,90.833z"/>
</g>
<g id="Layer_10" display="none">
	<path display="inline" fill="#171617" d="M294.648,96.934l0.814-12.608c0,0,0.203-4.677,16.064-3.05c0,0,6.711,0.61,7.524,4.88
		c0.812,4.271-0.813,11.185-0.813,11.185l-10.168,8.134L294.648,96.934z"/>
	<path display="inline" fill="#171617" d="M315.188,82.902c0,0,29.894-10.981,41.077-9.964c0,0,5.491,3.253,0.407,6.507
		s-14.438,10.167-41.078,13.828c-26.639,3.66-5.286-8.744-5.286-8.744L315.188,82.902z"/>
	<path display="inline" fill="#171617" d="M317.628,117.065c0,0,4.066,4.067,11.997-0.203c0,0-0.203-19.319-14.844-22.775
		c-14.642-3.457-7.524,11.184-7.524,11.184L317.628,117.065z"/>
	<path display="inline" fill="#171617" d="M239.744,76.192c0,0-2.645,1.626-2.645,2.44s33.555,7.321,39.857,7.321
		c6.305,0,19.318,2.237,20.742,3.864c1.424,1.627-1.017-4.88-1.017-4.88s-2.44,1.83-3.254,1.83S239.744,76.192,239.744,76.192z"/>
</g>
<g id="Layer_11" display="none">
	<path display="inline" fill="#171617" d="M167.35,87.376c0,0-23.182,6.914-71.58,9.761l-21.962,0.61l-2.44,8.948l-1.22,0.203
		l-5.288,25.419c0,0-1.829,6.102,5.288,8.135l12.404-19.319c0,0,3.66-4.88,7.524-6.101c0,0,3.457-0.61,4.066-2.847
		c0,0,2.644-5.288,14.642-4.474c0,0,54.702-2.033,61.21-6.507C176.5,96.731,167.35,87.376,167.35,87.376z"/>
	<path display="inline" fill="#171617" d="M75.434,98.358l-4.88-10.167l1.423-3.05l2.237-0.61l14.032-3.253l0.609,2.847l6.305,0.61
		c0,0,2.846,5.49-0.204,12.608C91.906,104.458,75.434,98.358,75.434,98.358z"/>
</g>
<g id="Layer_12" display="none">
	<path display="inline" fill="#171617" d="M88.246,84.123c0,0,6.913-11.794-3.254-20.335l-8.744,0.407c0,0-7.321,8.134-1.83,21.352
		c5.49,13.218,7.727,2.847,7.727,2.847L88.246,84.123z"/>
	<path display="inline" fill="#171617" d="M72.791,88.19c0,0-44.331,6.71-51.652,12.404c0,0-3.253,3.863-1.016,6.101
		c2.236,2.237,55.312-3.457,56.938-9.558C78.688,91.037,72.791,88.19,72.791,88.19z"/>
	<path display="inline" fill="#171617" d="M94.346,91.444l14.846,5.49l-4.067,1.83c0,0-6.508-5.49-9.354-4.27
		c-2.847,1.22-6.101-5.287-6.101-5.287L94.346,91.444z"/>
	<polygon display="inline" fill="#171617" points="148.946,110.152 125.307,102.984 135.221,100.239 146.049,105.272 
		152.454,107.407 	"/>
</g>
<g id="Layer_2" display="none">
	<path display="inline" fill="#171617" d="M223.679,102.222c0,0,0.455-1.174,0.509-1.78c0.941-10.66-3.864-45.729-17.285-78.138
		c0,0-1.738-8.715-24.809-6.711c-4.965,0.431-13.422,0.915-18.201,3.66c0,0-5.795,2.746-6.1,7.626
		c-0.306,4.88-0.916,23.182-0.916,23.182s5.566,36.604,6.559,42.552c0,0,1.678,9.913,11.133,17.539c0,0,3.447,2.998,11.287,4.779
		C197.084,117.482,214.877,117.49,223.679,102.222z"/>
</g>
<g id="Layer_5" display="none">
	<path display="inline" fill="#FFFFFF" d="M218.035,103.899c0,5.644-8.319,11.625-19.521,11.744
		c-14.488,0.152-19.064-4.728-19.064-10.371s8.93-12.659,20.132-12.659C210.784,92.613,218.035,97.341,218.035,103.899z"/>
	<path display="inline" d="M206.216,92.003c0,0-3.127,4.728-3.508,4.88c-0.382,0.153-3.813,0.763-3.966,0.229
		s-1.373-5.186-3.05-5.262C194.015,91.774,206.216,92.003,206.216,92.003z"/>
	<path display="inline" fill="#050606" d="M210.055,105.577c0,3.033-4.881,5.999-11.643,5.999c-6.486,0-10.32-2.051-10.32-5.084
		c0-3.032,3.842-5.6,10.32-5.897C205.072,100.29,210.055,102.544,210.055,105.577z"/>
</g>
<g id="Layer_4" display="none">
	<path display="inline" fill="#7F7E7F" d="M192.362,86.767c0,0-11.591-49.618-27.859-67.919c0,0-6.711,2.439-6.812,8.438
		s2.136,24.301,19.421,65.582C177.111,92.868,184.229,86.767,192.362,86.767z"/>
</g>
<g id="Layer_3" display="none">
	<path display="inline" fill="#FFFFFF" d="M171.519,100.696c0,0-7.778-6.558-8.388-9.914c-0.611-3.355,11.953-21.92,13.573-24.859
		c2.187-3.966,2.288-17.082,1.678-20.742s-4.728-27.3-5.186-28.52c-0.458-1.22,14.032-2.135,18.761-1.373
		c0,0,13.217,24.605,15.555,32.791c2.317,8.112,10.676,23.64,14.337,27.605c3.66,3.965,4.983,14.997,2.237,26.13
		c0,0-0.103-17.285-24.352-16.217C175.484,86.665,171.519,100.696,171.519,100.696z"/>
</g>
<g id="Layer_13" display="none">
	<g display="inline">
		<g>
			<path fill="#070808" d="M358.867,298.147c0,0,15.33,5.656,33.265,5.656s30.844-5.656,30.844-5.656
				c0-11.601-1.731-27.799-9.579-38.706c-4.988-6.936-14.294-11.786-21.265-11.786c-6.997,0-16.339,4.807-21.788,11.786
				C361.828,270.349,358.867,286.575,358.867,298.147z"/>
			<circle fill="#070808" stroke="#FFFFFF" stroke-width="3" stroke-miterlimit="10" cx="392.087" cy="235.453" r="19.796"/>
		</g>
		<g>
			<path fill="#070808" d="M160.686,298.434c0,0,15.33,5.656,33.264,5.656c17.936,0,30.844-5.656,30.844-5.656
				c0-11.601-1.731-27.799-9.579-38.706c-4.988-6.935-14.294-11.786-21.265-11.786c-6.998,0-16.339,4.807-21.787,11.786
				C163.646,270.635,160.686,286.861,160.686,298.434z"/>
			<circle fill="#070808" stroke="#FFFFFF" stroke-width="3" stroke-miterlimit="10" cx="193.905" cy="235.74" r="19.797"/>
		</g>
		<path fill="#070808" d="M248.436,336.682c0,0,20.988,7.745,45.543,7.745s42.229-7.745,42.229-7.745
			c0-15.883-2.37-38.059-13.113-52.993c-6.833-9.495-19.571-16.135-29.115-16.135c-9.58,0-22.371,6.581-29.831,16.135
			C252.488,298.623,248.436,320.838,248.436,336.682z"/>
		<circle fill="#070808" stroke="#FFFFFF" stroke-width="3" stroke-miterlimit="10" cx="293.917" cy="250.846" r="27.104"/>
		<g>
			<path fill="#070808" d="M323.15,318.846c0,0,18.314,6.757,39.738,6.757c21.426,0,36.848-6.757,36.848-6.757
				c0-13.859-2.068-33.209-11.443-46.239c-5.959-8.285-17.076-14.079-25.404-14.079c-8.359,0-19.52,5.742-26.027,14.079
				C326.687,285.637,323.15,305.021,323.15,318.846z"/>
			<circle fill="#070808" stroke="#FFFFFF" stroke-width="3" stroke-miterlimit="10" cx="362.836" cy="243.949" r="23.65"/>
		</g>
		<g>
			<path fill="#070808" d="M186.053,318.846c0,0,18.314,6.757,39.738,6.757c21.426,0,36.848-6.757,36.848-6.757
				c0-13.859-2.068-33.209-11.443-46.239c-5.96-8.285-17.076-14.079-25.404-14.079c-8.359,0-19.519,5.742-26.027,14.079
				C189.59,285.637,186.053,305.021,186.053,318.846z"/>
			<circle fill="#070808" stroke="#FFFFFF" stroke-width="3" stroke-miterlimit="10" cx="225.738" cy="243.949" r="23.65"/>
		</g>
	</g>
</g>
<g id="Layer_14">
	<text transform="matrix(1 0 0 1 305.666 319.2075)" font-family="'MyriadPro-Regular'" font-size="18">Feedback</text>
	
		<rect x="102.833" y="225.187" fill="none" stroke="#000000" stroke-miterlimit="10" stroke-dasharray="12" width="171" height="100.684"/>
	<g>
		<g>
			<line fill="none" stroke="#000000" stroke-miterlimit="10" x1="305.5" y1="313.333" x2="281.561" y2="313.333"/>
			<g>
				<polygon points="274.5,313.333 284.449,309.268 282.088,313.333 284.449,317.397 				"/>
			</g>
		</g>
	</g>
	<text transform="matrix(1 0 0 1 307.166 257.8335)" font-family="'MyriadPro-Regular'" font-size="18">Coded Data</text>
	<g>
		<g>
			<line fill="none" stroke="#000000" stroke-miterlimit="10" x1="261.5" y1="252.333" x2="298.439" y2="252.387"/>
			<g>
				<polygon points="305.5,252.397 295.545,256.448 297.912,252.386 295.557,248.318 				"/>
			</g>
		</g>
	</g>
</g>
<g id="Layer_15">
	<g>
		<g>
			<line fill="none" stroke="#050606" stroke-miterlimit="10" x1="260.913" y1="201.727" x2="260.625" y2="225"/>
			<g>
				<polygon fill="#050606" points="261,194.667 256.812,204.565 260.906,202.254 264.941,204.665 				"/>
			</g>
		</g>
	</g>
	<rect x="208" y="208.333" fill="#FFFFFF" width="89.333" height="12.333"/>
	<g>
		<g>
			<line fill="none" stroke="#050606" stroke-miterlimit="10" x1="117.334" y1="194" x2="117.576" y2="228.439"/>
			<g>
				<polygon fill="#050606" points="117.625,235.5 113.49,225.58 117.572,227.912 121.62,225.522 				"/>
			</g>
		</g>
	</g>
	<rect x="69.667" y="202.657" fill="#FFFFFF" width="89.333" height="16.677"/>
	<text transform="matrix(1 0 0 1 219.2222 217.375)" font-family="'MyriadPro-Regular'" font-size="14">Available Rate</text>
	<rect x="103.667" y="156.211" fill="none" stroke="#050606" stroke-miterlimit="10" width="169.193" height="37.327"/>
	<text transform="matrix(1 0 0 1 130.8286 181.5415)" font-family="'MyriadPro-Regular'" font-size="18">Source  Coding</text>
	<rect x="113.027" y="234.929" fill="none" stroke="#050606" stroke-miterlimit="10" width="148.64" height="34.892"/>
	<text transform="matrix(1 0 0 1 167.001 258.9062)" font-family="'MyriadPro-Regular'" font-size="18">RLNC</text>
	<rect x="113.37" y="277.705" fill="none" stroke="#050606" stroke-miterlimit="10" width="149.63" height="38.67"/>
	<text transform="matrix(1 0 0 1 128.0454 302.5391)" font-family="'MyriadPro-Regular'" font-size="18">Rate Adaptation</text>
	<text transform="matrix(1 0 0 1 84.9473 217.375)" font-family="'MyriadPro-Regular'" font-size="14">Video Data</text>
</g>
</svg>
